<svg xmlns="http://www.w3.org/2000/svg" viewBox="0 0 760 370" role="img" aria-labelledby="t d">
<title id="t">Illustrative sequence index plot</title>
<desc id="d">Eight categorical sequences displayed across six aligned positions.</desc>
<rect width="760" height="370" rx="24" fill="#ffffff"/>
<text x="38" y="38" font-family="Inter,Arial,sans-serif" font-size="22" font-weight="700" fill="#172033">Sequence index</text>
<text x="38" y="58" font-family="Inter,Arial,sans-serif" font-size="12" fill="#667085">Illustrative aligned categorical sequences</text>
<text x="162.0" y="47" text-anchor="middle" font-family="Inter,Arial,sans-serif" font-size="12" fill="#667085">P1</text>
<text x="254.0" y="47" text-anchor="middle" font-family="Inter,Arial,sans-serif" font-size="12" fill="#667085">P2</text>
<text x="346.0" y="47" text-anchor="middle" font-family="Inter,Arial,sans-serif" font-size="12" fill="#667085">P3</text>
<text x="438.0" y="47" text-anchor="middle" font-family="Inter,Arial,sans-serif" font-size="12" fill="#667085">P4</text>
<text x="530.0" y="47" text-anchor="middle" font-family="Inter,Arial,sans-serif" font-size="12" fill="#667085">P5</text>
<text x="622.0" y="47" text-anchor="middle" font-family="Inter,Arial,sans-serif" font-size="12" fill="#667085">P6</text>
<text x="102" y="81" text-anchor="end" font-family="Inter,Arial,sans-serif" font-size="12" fill="#667085">S1</text>
<rect x="120" y="62" width="84" height="28" rx="7" fill="#6750A4"/>
<text x="162.0" y="81" text-anchor="middle" font-family="Inter,Arial,sans-serif" font-size="12" font-weight="700" fill="#fff">A</text>
<rect x="212" y="62" width="84" height="28" rx="7" fill="#6750A4"/>
<text x="254.0" y="81" text-anchor="middle" font-family="Inter,Arial,sans-serif" font-size="12" font-weight="700" fill="#fff">A</text>
<rect x="304" y="62" width="84" height="28" rx="7" fill="#3F66D4"/>
<text x="346.0" y="81" text-anchor="middle" font-family="Inter,Arial,sans-serif" font-size="12" font-weight="700" fill="#fff">B</text>
<rect x="396" y="62" width="84" height="28" rx="7" fill="#00A6A6"/>
<text x="438.0" y="81" text-anchor="middle" font-family="Inter,Arial,sans-serif" font-size="12" font-weight="700" fill="#fff">C</text>
<rect x="488" y="62" width="84" height="28" rx="7" fill="#00A6A6"/>
<text x="530.0" y="81" text-anchor="middle" font-family="Inter,Arial,sans-serif" font-size="12" font-weight="700" fill="#fff">C</text>
<rect x="580" y="62" width="84" height="28" rx="7" fill="#F59E0B"/>
<text x="622.0" y="81" text-anchor="middle" font-family="Inter,Arial,sans-serif" font-size="12" font-weight="700" fill="#fff">D</text>
<text x="102" y="121" text-anchor="end" font-family="Inter,Arial,sans-serif" font-size="12" fill="#667085">S2</text>
<rect x="120" y="102" width="84" height="28" rx="7" fill="#6750A4"/>
<text x="162.0" y="121" text-anchor="middle" font-family="Inter,Arial,sans-serif" font-size="12" font-weight="700" fill="#fff">A</text>
<rect x="212" y="102" width="84" height="28" rx="7" fill="#3F66D4"/>
<text x="254.0" y="121" text-anchor="middle" font-family="Inter,Arial,sans-serif" font-size="12" font-weight="700" fill="#fff">B</text>
<rect x="304" y="102" width="84" height="28" rx="7" fill="#00A6A6"/>
<text x="346.0" y="121" text-anchor="middle" font-family="Inter,Arial,sans-serif" font-size="12" font-weight="700" fill="#fff">C</text>
<rect x="396" y="102" width="84" height="28" rx="7" fill="#00A6A6"/>
<text x="438.0" y="121" text-anchor="middle" font-family="Inter,Arial,sans-serif" font-size="12" font-weight="700" fill="#fff">C</text>
<rect x="488" y="102" width="84" height="28" rx="7" fill="#F59E0B"/>
<text x="530.0" y="121" text-anchor="middle" font-family="Inter,Arial,sans-serif" font-size="12" font-weight="700" fill="#fff">D</text>
<rect x="580" y="102" width="84" height="28" rx="7" fill="#F59E0B"/>
<text x="622.0" y="121" text-anchor="middle" font-family="Inter,Arial,sans-serif" font-size="12" font-weight="700" fill="#fff">D</text>
<text x="102" y="161" text-anchor="end" font-family="Inter,Arial,sans-serif" font-size="12" fill="#667085">S3</text>
<rect x="120" y="142" width="84" height="28" rx="7" fill="#6750A4"/>
<text x="162.0" y="161" text-anchor="middle" font-family="Inter,Arial,sans-serif" font-size="12" font-weight="700" fill="#fff">A</text>
<rect x="212" y="142" width="84" height="28" rx="7" fill="#6750A4"/>
<text x="254.0" y="161" text-anchor="middle" font-family="Inter,Arial,sans-serif" font-size="12" font-weight="700" fill="#fff">A</text>
<rect x="304" y="142" width="84" height="28" rx="7" fill="#3F66D4"/>
<text x="346.0" y="161" text-anchor="middle" font-family="Inter,Arial,sans-serif" font-size="12" font-weight="700" fill="#fff">B</text>
<rect x="396" y="142" width="84" height="28" rx="7" fill="#00A6A6"/>
<text x="438.0" y="161" text-anchor="middle" font-family="Inter,Arial,sans-serif" font-size="12" font-weight="700" fill="#fff">C</text>
<rect x="488" y="142" width="84" height="28" rx="7" fill="#3F66D4"/>
<text x="530.0" y="161" text-anchor="middle" font-family="Inter,Arial,sans-serif" font-size="12" font-weight="700" fill="#fff">B</text>
<rect x="580" y="142" width="84" height="28" rx="7" fill="#F59E0B"/>
<text x="622.0" y="161" text-anchor="middle" font-family="Inter,Arial,sans-serif" font-size="12" font-weight="700" fill="#fff">D</text>
<text x="102" y="201" text-anchor="end" font-family="Inter,Arial,sans-serif" font-size="12" fill="#667085">S4</text>
<rect x="120" y="182" width="84" height="28" rx="7" fill="#6750A4"/>
<text x="162.0" y="201" text-anchor="middle" font-family="Inter,Arial,sans-serif" font-size="12" font-weight="700" fill="#fff">A</text>
<rect x="212" y="182" width="84" height="28" rx="7" fill="#3F66D4"/>
<text x="254.0" y="201" text-anchor="middle" font-family="Inter,Arial,sans-serif" font-size="12" font-weight="700" fill="#fff">B</text>
<rect x="304" y="182" width="84" height="28" rx="7" fill="#3F66D4"/>
<text x="346.0" y="201" text-anchor="middle" font-family="Inter,Arial,sans-serif" font-size="12" font-weight="700" fill="#fff">B</text>
<rect x="396" y="182" width="84" height="28" rx="7" fill="#00A6A6"/>
<text x="438.0" y="201" text-anchor="middle" font-family="Inter,Arial,sans-serif" font-size="12" font-weight="700" fill="#fff">C</text>
<rect x="488" y="182" width="84" height="28" rx="7" fill="#F59E0B"/>
<text x="530.0" y="201" text-anchor="middle" font-family="Inter,Arial,sans-serif" font-size="12" font-weight="700" fill="#fff">D</text>
<rect x="580" y="182" width="84" height="28" rx="7" fill="#F59E0B"/>
<text x="622.0" y="201" text-anchor="middle" font-family="Inter,Arial,sans-serif" font-size="12" font-weight="700" fill="#fff">D</text>
<text x="102" y="241" text-anchor="end" font-family="Inter,Arial,sans-serif" font-size="12" fill="#667085">S5</text>
<rect x="120" y="222" width="84" height="28" rx="7" fill="#F59E0B"/>
<text x="162.0" y="241" text-anchor="middle" font-family="Inter,Arial,sans-serif" font-size="12" font-weight="700" fill="#fff">D</text>
<rect x="212" y="222" width="84" height="28" rx="7" fill="#00A6A6"/>
<text x="254.0" y="241" text-anchor="middle" font-family="Inter,Arial,sans-serif" font-size="12" font-weight="700" fill="#fff">C</text>
<rect x="304" y="222" width="84" height="28" rx="7" fill="#00A6A6"/>
<text x="346.0" y="241" text-anchor="middle" font-family="Inter,Arial,sans-serif" font-size="12" font-weight="700" fill="#fff">C</text>
<rect x="396" y="222" width="84" height="28" rx="7" fill="#3F66D4"/>
<text x="438.0" y="241" text-anchor="middle" font-family="Inter,Arial,sans-serif" font-size="12" font-weight="700" fill="#fff">B</text>
<rect x="488" y="222" width="84" height="28" rx="7" fill="#3F66D4"/>
<text x="530.0" y="241" text-anchor="middle" font-family="Inter,Arial,sans-serif" font-size="12" font-weight="700" fill="#fff">B</text>
<rect x="580" y="222" width="84" height="28" rx="7" fill="#6750A4"/>
<text x="622.0" y="241" text-anchor="middle" font-family="Inter,Arial,sans-serif" font-size="12" font-weight="700" fill="#fff">A</text>
<text x="102" y="281" text-anchor="end" font-family="Inter,Arial,sans-serif" font-size="12" fill="#667085">S6</text>
<rect x="120" y="262" width="84" height="28" rx="7" fill="#F59E0B"/>
<text x="162.0" y="281" text-anchor="middle" font-family="Inter,Arial,sans-serif" font-size="12" font-weight="700" fill="#fff">D</text>
<rect x="212" y="262" width="84" height="28" rx="7" fill="#00A6A6"/>
<text x="254.0" y="281" text-anchor="middle" font-family="Inter,Arial,sans-serif" font-size="12" font-weight="700" fill="#fff">C</text>
<rect x="304" y="262" width="84" height="28" rx="7" fill="#00A6A6"/>
<text x="346.0" y="281" text-anchor="middle" font-family="Inter,Arial,sans-serif" font-size="12" font-weight="700" fill="#fff">C</text>
<rect x="396" y="262" width="84" height="28" rx="7" fill="#3F66D4"/>
<text x="438.0" y="281" text-anchor="middle" font-family="Inter,Arial,sans-serif" font-size="12" font-weight="700" fill="#fff">B</text>
<rect x="488" y="262" width="84" height="28" rx="7" fill="#3F66D4"/>
<text x="530.0" y="281" text-anchor="middle" font-family="Inter,Arial,sans-serif" font-size="12" font-weight="700" fill="#fff">B</text>
<rect x="580" y="262" width="84" height="28" rx="7" fill="#F59E0B"/>
<text x="622.0" y="281" text-anchor="middle" font-family="Inter,Arial,sans-serif" font-size="12" font-weight="700" fill="#fff">D</text>
<text x="102" y="321" text-anchor="end" font-family="Inter,Arial,sans-serif" font-size="12" fill="#667085">S7</text>
<rect x="120" y="302" width="84" height="28" rx="7" fill="#F59E0B"/>
<text x="162.0" y="321" text-anchor="middle" font-family="Inter,Arial,sans-serif" font-size="12" font-weight="700" fill="#fff">D</text>
<rect x="212" y="302" width="84" height="28" rx="7" fill="#00A6A6"/>
<text x="254.0" y="321" text-anchor="middle" font-family="Inter,Arial,sans-serif" font-size="12" font-weight="700" fill="#fff">C</text>
<rect x="304" y="302" width="84" height="28" rx="7" fill="#3F66D4"/>
<text x="346.0" y="321" text-anchor="middle" font-family="Inter,Arial,sans-serif" font-size="12" font-weight="700" fill="#fff">B</text>
<rect x="396" y="302" width="84" height="28" rx="7" fill="#3F66D4"/>
<text x="438.0" y="321" text-anchor="middle" font-family="Inter,Arial,sans-serif" font-size="12" font-weight="700" fill="#fff">B</text>
<rect x="488" y="302" width="84" height="28" rx="7" fill="#6750A4"/>
<text x="530.0" y="321" text-anchor="middle" font-family="Inter,Arial,sans-serif" font-size="12" font-weight="700" fill="#fff">A</text>
<rect x="580" y="302" width="84" height="28" rx="7" fill="#F59E0B"/>
<text x="622.0" y="321" text-anchor="middle" font-family="Inter,Arial,sans-serif" font-size="12" font-weight="700" fill="#fff">D</text>
<text x="102" y="361" text-anchor="end" font-family="Inter,Arial,sans-serif" font-size="12" fill="#667085">S8</text>
<rect x="120" y="342" width="84" height="28" rx="7" fill="#F59E0B"/>
<text x="162.0" y="361" text-anchor="middle" font-family="Inter,Arial,sans-serif" font-size="12" font-weight="700" fill="#fff">D</text>
<rect x="212" y="342" width="84" height="28" rx="7" fill="#6750A4"/>
<text x="254.0" y="361" text-anchor="middle" font-family="Inter,Arial,sans-serif" font-size="12" font-weight="700" fill="#fff">A</text>
<rect x="304" y="342" width="84" height="28" rx="7" fill="#00A6A6"/>
<text x="346.0" y="361" text-anchor="middle" font-family="Inter,Arial,sans-serif" font-size="12" font-weight="700" fill="#fff">C</text>
<rect x="396" y="342" width="84" height="28" rx="7" fill="#3F66D4"/>
<text x="438.0" y="361" text-anchor="middle" font-family="Inter,Arial,sans-serif" font-size="12" font-weight="700" fill="#fff">B</text>
<rect x="488" y="342" width="84" height="28" rx="7" fill="#3F66D4"/>
<text x="530.0" y="361" text-anchor="middle" font-family="Inter,Arial,sans-serif" font-size="12" font-weight="700" fill="#fff">B</text>
<rect x="580" y="342" width="84" height="28" rx="7" fill="#F59E0B"/>
<text x="622.0" y="361" text-anchor="middle" font-family="Inter,Arial,sans-serif" font-size="12" font-weight="700" fill="#fff">D</text>
<circle cx="120" cy="345" r="6" fill="#6750A4"/>
<text x="132" y="349" font-family="Inter,Arial,sans-serif" font-size="11" fill="#667085">State A</text>
<circle cx="218" cy="345" r="6" fill="#3F66D4"/>
<text x="230" y="349" font-family="Inter,Arial,sans-serif" font-size="11" fill="#667085">State B</text>
<circle cx="316" cy="345" r="6" fill="#00A6A6"/>
<text x="328" y="349" font-family="Inter,Arial,sans-serif" font-size="11" fill="#667085">State C</text>
<circle cx="414" cy="345" r="6" fill="#F59E0B"/>
<text x="426" y="349" font-family="Inter,Arial,sans-serif" font-size="11" fill="#667085">State D</text>
</svg>